<svg id="图层_1" data-name="图层 1" xmlns="http://www.w3.org/2000/svg" viewBox="0 0 161 38"><defs><style>.cls-1{fill:#17e5e0;}.cls-2{fill:#12205b;}</style></defs><title>循环智能LOGO2.0</title><path class="cls-1" d="M.72,7.65a16.12,16.12,0,0,1,0,22.82l7.06,7.05A26.11,26.11,0,0,0,7.78.59Z"/><path class="cls-1" d="M30.58.59a26.13,26.13,0,0,0,0,36.93l7.06-7.05a16.14,16.14,0,0,1,0-22.82Z"/><polygon class="cls-2" points="53.84 30.43 53.84 17.4 56.71 13.78 56.71 30.43 53.84 30.43"/><rect class="cls-2" x="63.05" y="11.45" width="9.79" height="2.87" transform="translate(80.83 -55.06) rotate(90)"/><path class="cls-2" d="M56,12l-4.2,3.46V13.83a3.1,3.1,0,0,1,1.25-2.48l3.69-3.08v2.27A1.85,1.85,0,0,1,56,12Z"/><path class="cls-2" d="M55,18.27l-3.14,2.66V19.3a3.1,3.1,0,0,1,1.25-2.49l3.64-3Z"/><path class="cls-2" d="M71.71,15.73H64.18a1.7,1.7,0,0,0-1.7,1.7V28.72a1.7,1.7,0,0,0,1.7,1.7h7.53a1.7,1.7,0,0,0,1.7-1.7V17.43A1.7,1.7,0,0,0,71.71,15.73Zm-1.16,8.41h-5.2V22h5.2Zm-4.78-6.38h4.36a.42.42,0,0,1,.42.42V20h-5.2V18.18A.42.42,0,0,1,65.77,17.76ZM70.13,28.4H65.77a.42.42,0,0,1-.42-.42v-1.8h5.2V28A.42.42,0,0,1,70.13,28.4Z"/><path class="cls-2" d="M58.15,30.44H61V13.13A3.12,3.12,0,0,1,64.15,10h8.73A1.12,1.12,0,0,0,74,8.9V8H63.77a5.62,5.62,0,0,0-5.62,5.61Z"/><path class="cls-2" d="M70.25,11.87H63.78a1.31,1.31,0,0,0-1.28,1.27v.75h10a1,1,0,0,0,1-1V11.87Z"/><path class="cls-2" d="M84.78,11.23H80.05c0-1.94.24-2.08,2.54-2.08h4.73C87.32,11,87,11.23,84.78,11.23Z"/><path class="cls-2" d="M85.06,19H80.72c0-2,.19-2.11,2.1-2.11h4.34C87.16,18.77,86.85,19,85.06,19Z"/><path class="cls-2" d="M87.48,25.62h2a1.51,1.51,0,0,0,1.41-.88L96.77,8.18H93.58Z"/><path class="cls-2" d="M103,23.36,99.54,15a4.64,4.64,0,0,0-3.82-2.66l-.49,0,4.12,9.83a1.69,1.69,0,0,0,1.41,1Z"/><path class="cls-2" d="M94.07,30.24V9.56H97V26.9c0,2.91-.27,3.34-2.93,3.34Z"/><rect class="cls-2" x="82.47" y="10.82" width="2.93" height="18.28"/><path class="cls-2" d="M85.61,29.2l-5.56.47V28.3a1,1,0,0,1,.89-1l6.86-.58h0C87.92,28.72,87.62,29,85.61,29.2Z"/><path class="cls-2" d="M89.75,8.19h12.93a0,0,0,0,1,0,0V8.9a1.56,1.56,0,0,1-1.56,1.56H88.19a0,0,0,0,1,0,0V9.75a1.56,1.56,0,0,1,1.56-1.56Z"/><path class="cls-2" d="M110.92,21.65v7.14a1.45,1.45,0,0,0,1.45,1.45h15.27a1.45,1.45,0,0,0,1.45-1.45V21.65a1.45,1.45,0,0,0-1.45-1.45H112.37A1.45,1.45,0,0,0,110.92,21.65Zm15.19.64v1.85H113.89V22.29Zm-12.23,5.8V26.23h12.23v1.86Z"/><path class="cls-2" d="M122.38,9.64v7.92A1.46,1.46,0,0,0,123.83,19h5.28a1.46,1.46,0,0,0,1.44-1.46V9.64a1.45,1.45,0,0,0-1.44-1.46h-5.28A1.45,1.45,0,0,0,122.38,9.64Zm5.2.65v6.42h-2.23V10.29Z"/><rect class="cls-2" x="114.97" y="9.63" width="1.4" height="2.94" transform="translate(126.77 -104.57) rotate(90)"/><path class="cls-2" d="M109.46,19.48a7.68,7.68,0,0,0,7.68-7.68h-2.93a4.75,4.75,0,0,1-4.75,4.75Z"/><polygon class="cls-2" points="116.97 18.84 115.34 15.64 119.41 15.64 121.03 18.84 116.97 18.84"/><path class="cls-2" d="M112.47,10.75l1.74-3.29h-1.37a2.28,2.28,0,0,0-2,1.15l-1.14,2.14Z"/><rect class="cls-2" x="112.35" y="8.68" width="8.75" height="2.07"/><rect class="cls-2" x="109.73" y="12.19" width="11.15" height="2.07"/><rect class="cls-2" x="138.41" y="20.14" width="9.71" height="2.12"/><path class="cls-2" d="M138.31,17.85v11.5a1.07,1.07,0,0,0,1.08,1.07h1.91V18.31a.65.65,0,0,1,.65-.64h4.36a.65.65,0,0,1,.65.64V30.42h1.94A1.07,1.07,0,0,0,150,29.35V17.85a2.34,2.34,0,0,0-2.35-2.33h-7A2.34,2.34,0,0,0,138.31,17.85Z"/><path class="cls-2" d="M155.09,28.29a.5.5,0,0,1-.5-.5V24.74h4.94V22.6h-4.94V21a1.44,1.44,0,0,0-1.45-1.43h-1.57v8.92a1.88,1.88,0,0,0,1.88,1.87H159a1,1,0,0,0,1-1v-1.1Z"/><path class="cls-2" d="M155.09,16.43a.5.5,0,0,1-.5-.5v-3h4.94V10.74h-4.94V9.18a1.44,1.44,0,0,0-1.45-1.44h-1.57v8.93a1.87,1.87,0,0,0,1.88,1.86H159a1,1,0,0,0,1-1v-1.1Z"/><rect class="cls-2" x="140.69" y="24.82" width="6.91" height="2.14"/><path class="cls-2" d="M147.61,9.14H145.7l1.16,3h-5a.5.5,0,0,1-.46-.68l1.54-3.69h-2.09a1.69,1.69,0,0,0-1.57,1.06l-1,2.46a2.51,2.51,0,0,0-.17.89v.89a1.21,1.21,0,0,0,1.21,1.2h9.56A1.31,1.31,0,0,0,150.18,13h0a9.88,9.88,0,0,0-1.06-2.79A1.7,1.7,0,0,0,147.61,9.14Z"/></svg>